<mxfile host="app.diagrams.net" modified="2024-05-29T17:55:22.093Z" agent="Mozilla/5.0 (Windows NT 10.0; Win64; x64) AppleWebKit/537.36 (KHTML, like Gecko) Chrome/125.0.0.0 Safari/537.36" etag="_0nuxFJeJS411zdvVaq_" version="24.4.10" type="github">
  <diagram name="PÃ¡gina-1" id="qtJmnwFwFeLOcwQkmZnU">
    <mxGraphModel dx="1832" dy="790" grid="0" gridSize="10" guides="1" tooltips="1" connect="1" arrows="1" fold="1" page="0" pageScale="1" pageWidth="827" pageHeight="1169" math="0" shadow="0">
      <root>
        <mxCell id="0" />
        <mxCell id="1" parent="0" />
        <mxCell id="DoBYynUEnmm3b60OkJsO-1" value="&lt;p style=&quot;margin:0px;margin-top:4px;text-align:center;&quot;&gt;&amp;lt;&amp;lt;requirement&amp;gt;&amp;gt;&lt;br&gt;&lt;b&gt;Review Doctor&lt;/b&gt;&lt;/p&gt;&lt;hr&gt;&lt;p&gt;&lt;/p&gt;&lt;p style=&quot;margin:0px;margin-left:8px;text-align:left;&quot;&gt;text=&quot;The system should enable to review doctor&quot;&lt;br&gt;Id=&quot;13&quot;&lt;/p&gt;" style="shape=rect;overflow=fill;html=1;whiteSpace=wrap;align=center;" parent="1" vertex="1">
          <mxGeometry x="359" y="40" width="200" height="100" as="geometry" />
        </mxCell>
        <mxCell id="DoBYynUEnmm3b60OkJsO-2" value="&lt;p style=&quot;margin:0px;margin-top:4px;text-align:center;&quot;&gt;&amp;lt;&amp;lt;requirement&amp;gt;&amp;gt;&lt;br&gt;&lt;b&gt;Review form produced&lt;/b&gt;&lt;/p&gt;&lt;hr&gt;&lt;p&gt;&lt;/p&gt;&lt;p style=&quot;margin:0px;margin-left:8px;text-align:left;&quot;&gt;text=&quot;The system should produce the review form&quot;&lt;br&gt;Id=&quot;13.1&quot;&lt;/p&gt;" style="shape=rect;overflow=fill;html=1;whiteSpace=wrap;align=center;" parent="1" vertex="1">
          <mxGeometry x="-307" y="190" width="200" height="100" as="geometry" />
        </mxCell>
        <mxCell id="DoBYynUEnmm3b60OkJsO-3" value="&lt;p style=&quot;margin:0px;margin-top:4px;text-align:center;&quot;&gt;&amp;lt;&amp;lt;requirement&amp;gt;&amp;gt;&lt;br&gt;&lt;b&gt;Form filled&lt;/b&gt;&lt;/p&gt;&lt;hr&gt;&lt;p&gt;&lt;/p&gt;&lt;p style=&quot;margin:0px;margin-left:8px;text-align:left;&quot;&gt;text=&quot;The system should get the patient review information &quot;&lt;br&gt;Id=&quot;13.4&quot;&lt;/p&gt;" style="shape=rect;overflow=fill;html=1;whiteSpace=wrap;align=center;" parent="1" vertex="1">
          <mxGeometry x="359" y="190" width="200" height="100" as="geometry" />
        </mxCell>
        <mxCell id="DoBYynUEnmm3b60OkJsO-7" value="&lt;p style=&quot;margin:0px;margin-top:4px;text-align:center;&quot;&gt;&amp;lt;&amp;lt;requirement&amp;gt;&amp;gt;&lt;br&gt;&lt;b&gt;Doctor Reviewed&lt;/b&gt;&lt;/p&gt;&lt;hr&gt;&lt;p&gt;&lt;/p&gt;&lt;p style=&quot;margin:0px;margin-left:8px;text-align:left;&quot;&gt;text=&quot;The system should store the review in the database&quot;&lt;br&gt;Id=&quot;13.5&quot;&lt;/p&gt;" style="shape=rect;overflow=fill;html=1;whiteSpace=wrap;align=center;" parent="1" vertex="1">
          <mxGeometry x="627" y="190" width="200" height="100" as="geometry" />
        </mxCell>
        <mxCell id="DoBYynUEnmm3b60OkJsO-8" value="&lt;p style=&quot;margin:0px;margin-top:4px;text-align:center;&quot;&gt;&amp;lt;&amp;lt;requirement&amp;gt;&amp;gt;&lt;br&gt;&lt;b&gt;Analytics computed&lt;/b&gt;&lt;/p&gt;&lt;hr&gt;&lt;p&gt;&lt;/p&gt;&lt;p style=&quot;margin:0px;margin-left:8px;text-align:left;&quot;&gt;text=&quot;The system should compute the analytics using the newly stored review&quot;&lt;br&gt;Id=&quot;13.6&quot;&lt;/p&gt;" style="shape=rect;overflow=fill;html=1;whiteSpace=wrap;align=center;" parent="1" vertex="1">
          <mxGeometry x="860" y="190" width="220" height="100" as="geometry" />
        </mxCell>
        <mxCell id="DoBYynUEnmm3b60OkJsO-15" value="" style="rounded=0;html=1;labelBackgroundColor=none;endArrow=none;edgeStyle=elbowEdgeStyle;elbow=vertical;startArrow=sysMLPackCont;startSize=12;" parent="1" source="DoBYynUEnmm3b60OkJsO-1" target="DoBYynUEnmm3b60OkJsO-2" edge="1">
          <mxGeometry relative="1" as="geometry">
            <mxPoint x="240" y="120" as="sourcePoint" />
            <mxPoint x="150" y="180" as="targetPoint" />
          </mxGeometry>
        </mxCell>
        <mxCell id="DoBYynUEnmm3b60OkJsO-16" value="" style="rounded=0;html=1;labelBackgroundColor=none;endArrow=none;edgeStyle=elbowEdgeStyle;elbow=vertical;startArrow=sysMLPackCont;startSize=12;" parent="1" source="DoBYynUEnmm3b60OkJsO-1" target="DoBYynUEnmm3b60OkJsO-3" edge="1">
          <mxGeometry relative="1" as="geometry">
            <mxPoint x="700" y="120" as="sourcePoint" />
            <mxPoint x="610" y="180" as="targetPoint" />
          </mxGeometry>
        </mxCell>
        <mxCell id="DoBYynUEnmm3b60OkJsO-17" value="" style="rounded=0;html=1;labelBackgroundColor=none;endArrow=none;edgeStyle=elbowEdgeStyle;elbow=vertical;startArrow=sysMLPackCont;startSize=12;" parent="1" source="DoBYynUEnmm3b60OkJsO-1" target="DoBYynUEnmm3b60OkJsO-7" edge="1">
          <mxGeometry relative="1" as="geometry">
            <mxPoint x="850" y="60" as="sourcePoint" />
            <mxPoint x="760" y="120" as="targetPoint" />
          </mxGeometry>
        </mxCell>
        <mxCell id="DoBYynUEnmm3b60OkJsO-18" value="" style="rounded=0;html=1;labelBackgroundColor=none;endArrow=none;edgeStyle=elbowEdgeStyle;elbow=vertical;startArrow=sysMLPackCont;startSize=12;" parent="1" source="DoBYynUEnmm3b60OkJsO-1" target="DoBYynUEnmm3b60OkJsO-8" edge="1">
          <mxGeometry relative="1" as="geometry">
            <mxPoint x="910" y="90" as="sourcePoint" />
            <mxPoint x="820" y="150" as="targetPoint" />
          </mxGeometry>
        </mxCell>
        <mxCell id="DoBYynUEnmm3b60OkJsO-36" value="&lt;p style=&quot;margin:0px;margin-top:4px;text-align:center;&quot;&gt;&amp;lt;&amp;lt;requirement&amp;gt;&amp;gt;&lt;br&gt;&lt;b style=&quot;font-size: 11px; background-color: rgb(255, 255, 255);&quot;&gt;Use Arial or other readable font&lt;/b&gt;&lt;br&gt;&lt;/p&gt;&lt;hr&gt;&lt;p&gt;&lt;/p&gt;&lt;p style=&quot;margin:0px;margin-left:8px;text-align:left;&quot;&gt;text=&quot;The system use a readable font like arial&quot;&lt;br&gt;Id=&quot;13.2&quot;&lt;/p&gt;" style="shape=rect;overflow=fill;html=1;whiteSpace=wrap;align=center;" parent="1" vertex="1">
          <mxGeometry x="-77" y="190" width="200" height="100" as="geometry" />
        </mxCell>
        <mxCell id="DoBYynUEnmm3b60OkJsO-37" value="&lt;p style=&quot;margin:0px;margin-top:4px;text-align:center;&quot;&gt;&amp;lt;&amp;lt;requirement&amp;gt;&amp;gt;&lt;br&gt;&lt;b style=&quot;font-size: 11px; background-color: rgb(255, 255, 255);&quot;&gt;Font size of at least 13pt&lt;/b&gt;&lt;br&gt;&lt;/p&gt;&lt;hr&gt;&lt;p&gt;&lt;/p&gt;&lt;p style=&quot;margin:0px;margin-left:8px;text-align:left;&quot;&gt;text=&quot;The system should use a big enough font size&quot;&lt;br&gt;Id=&quot;13.3&quot;&lt;/p&gt;" style="shape=rect;overflow=fill;html=1;whiteSpace=wrap;align=center;" parent="1" vertex="1">
          <mxGeometry x="144" y="190" width="200" height="100" as="geometry" />
        </mxCell>
        <mxCell id="VdbZ1WAWMFB-WAOaWvKl-2" style="rounded=0;orthogonalLoop=1;jettySize=auto;html=1;endArrow=none;endFill=0;strokeWidth=2;dashed=1;" parent="1" source="cclT_DB0Qggv_PWN2DZa-4" target="DoBYynUEnmm3b60OkJsO-2" edge="1">
          <mxGeometry relative="1" as="geometry">
            <mxPoint x="-276.4084507042253" y="352" as="sourcePoint" />
            <mxPoint x="31" y="345" as="targetPoint" />
          </mxGeometry>
        </mxCell>
        <mxCell id="VdbZ1WAWMFB-WAOaWvKl-4" value="" style="rounded=0;html=1;labelBackgroundColor=none;endArrow=none;edgeStyle=elbowEdgeStyle;elbow=vertical;startArrow=sysMLPackCont;startSize=12;exitX=0.5;exitY=1;exitDx=0;exitDy=0;entryX=0.5;entryY=0;entryDx=0;entryDy=0;" parent="1" source="DoBYynUEnmm3b60OkJsO-1" target="DoBYynUEnmm3b60OkJsO-36" edge="1">
          <mxGeometry relative="1" as="geometry">
            <mxPoint x="469" y="150" as="sourcePoint" />
            <mxPoint x="-327" y="200" as="targetPoint" />
          </mxGeometry>
        </mxCell>
        <mxCell id="VdbZ1WAWMFB-WAOaWvKl-5" value="" style="rounded=0;html=1;labelBackgroundColor=none;endArrow=none;edgeStyle=elbowEdgeStyle;elbow=vertical;startArrow=sysMLPackCont;startSize=12;exitX=0.5;exitY=1;exitDx=0;exitDy=0;entryX=0.5;entryY=0;entryDx=0;entryDy=0;" parent="1" source="DoBYynUEnmm3b60OkJsO-1" target="DoBYynUEnmm3b60OkJsO-37" edge="1">
          <mxGeometry relative="1" as="geometry">
            <mxPoint x="469" y="150" as="sourcePoint" />
            <mxPoint x="-70" y="200" as="targetPoint" />
          </mxGeometry>
        </mxCell>
        <mxCell id="VdbZ1WAWMFB-WAOaWvKl-6" value="&amp;lt;&amp;lt; &lt;b&gt;Block &lt;/b&gt;&amp;gt;&amp;gt;&lt;div&gt;&lt;br&gt;&lt;b&gt;Interface designer&lt;/b&gt;&lt;/div&gt;" style="shape=rect;html=1;whiteSpace=wrap;align=center;verticalAlign=top;fillColor=#FFF2CC;" parent="1" vertex="1">
          <mxGeometry x="57" y="63" width="120" height="60" as="geometry" />
        </mxCell>
        <mxCell id="UxJA4p3bWHUDSC9jU2z--6" value="&lt;span style=&quot;background-color: initial;&quot;&gt;&lt;b&gt;&amp;lt;&amp;lt; Rationale &amp;gt;&amp;gt;&lt;/b&gt;&lt;/span&gt;&lt;div&gt;&lt;div style=&quot;font-weight: bold; text-align: left;&quot;&gt;&lt;br&gt;&lt;/div&gt;&lt;div style=&quot;&quot;&gt;The best practices involve using font styles easier to read&lt;/div&gt;&lt;/div&gt;" style="shape=note;size=15;align=center;spacingLeft=0;html=1;whiteSpace=wrap;verticalAlign=top;strokeWidth=1;" parent="1" vertex="1">
          <mxGeometry x="-61" y="324" width="173" height="69" as="geometry" />
        </mxCell>
        <mxCell id="UxJA4p3bWHUDSC9jU2z--7" style="rounded=0;orthogonalLoop=1;jettySize=auto;html=1;endArrow=none;endFill=0;strokeWidth=2;dashed=1;" parent="1" source="DoBYynUEnmm3b60OkJsO-36" target="UxJA4p3bWHUDSC9jU2z--6" edge="1">
          <mxGeometry relative="1" as="geometry">
            <mxPoint x="99" y="608" as="sourcePoint" />
            <mxPoint x="-107" y="727" as="targetPoint" />
          </mxGeometry>
        </mxCell>
        <mxCell id="UxJA4p3bWHUDSC9jU2z--8" value="&lt;span style=&quot;background-color: initial;&quot;&gt;&lt;b&gt;&amp;lt;&amp;lt; Rationale &amp;gt;&amp;gt;&lt;/b&gt;&lt;/span&gt;&lt;div&gt;&lt;div style=&quot;font-weight: bold; text-align: left;&quot;&gt;&lt;br&gt;&lt;/div&gt;&lt;div style=&quot;&quot;&gt;Change to a new font size, enough for the user to read&lt;/div&gt;&lt;/div&gt;" style="shape=note;size=15;align=center;spacingLeft=0;html=1;whiteSpace=wrap;verticalAlign=top;strokeWidth=1;" parent="1" vertex="1">
          <mxGeometry x="157.5" y="327" width="173" height="66" as="geometry" />
        </mxCell>
        <mxCell id="UxJA4p3bWHUDSC9jU2z--9" style="rounded=0;orthogonalLoop=1;jettySize=auto;html=1;endArrow=none;endFill=0;strokeWidth=2;dashed=1;" parent="1" source="DoBYynUEnmm3b60OkJsO-37" target="UxJA4p3bWHUDSC9jU2z--8" edge="1">
          <mxGeometry relative="1" as="geometry">
            <mxPoint x="272" y="480" as="sourcePoint" />
            <mxPoint x="66" y="599" as="targetPoint" />
          </mxGeometry>
        </mxCell>
        <mxCell id="DfmyGVBLDV5pji68DM7A-2" value="&amp;lt;&amp;lt; &lt;b&gt;Block &lt;/b&gt;&amp;gt;&amp;gt;&lt;div&gt;&lt;br&gt;&lt;b&gt;Review&lt;/b&gt;&lt;/div&gt;" style="shape=rect;html=1;whiteSpace=wrap;align=center;verticalAlign=top;fillColor=#FFF2CC;" parent="1" vertex="1">
          <mxGeometry x="770" y="364" width="79" height="60" as="geometry" />
        </mxCell>
        <mxCell id="DfmyGVBLDV5pji68DM7A-5" value="&amp;lt;&amp;lt; &lt;b&gt;Block &lt;/b&gt;&amp;gt;&amp;gt;&lt;div&gt;&lt;br&gt;&lt;b&gt;Analytics Controller&lt;/b&gt;&lt;/div&gt;" style="shape=rect;html=1;whiteSpace=wrap;align=center;verticalAlign=top;fillColor=#FFF2CC;" parent="1" vertex="1">
          <mxGeometry x="955" y="56" width="120" height="60" as="geometry" />
        </mxCell>
        <mxCell id="dJGLP6X07vzfaX5jemQ1-1" value="&amp;lt;&amp;lt; &lt;b&gt;Block &lt;/b&gt;&amp;gt;&amp;gt;&lt;div&gt;&lt;br&gt;&lt;b&gt;Review Controller&lt;/b&gt;&lt;/div&gt;" style="shape=rect;html=1;whiteSpace=wrap;align=center;verticalAlign=top;fillColor=#FFF2CC;" parent="1" vertex="1">
          <mxGeometry x="713" y="60" width="120" height="60" as="geometry" />
        </mxCell>
        <mxCell id="dJGLP6X07vzfaX5jemQ1-2" value="&lt;font style=&quot;font-size: 12px;&quot;&gt;&lt;b&gt;&amp;lt;&amp;lt; Satisfy &amp;gt;&amp;gt;&lt;/b&gt;&lt;/font&gt;" style="edgeStyle=none;html=1;endArrow=open;endSize=12;dashed=1;verticalAlign=bottom;rounded=0;strokeWidth=2;" parent="1" source="dJGLP6X07vzfaX5jemQ1-1" target="DoBYynUEnmm3b60OkJsO-1" edge="1">
          <mxGeometry width="160" relative="1" as="geometry">
            <mxPoint x="138" y="155.9999999999999" as="sourcePoint" />
            <mxPoint x="298" y="155.9999999999999" as="targetPoint" />
          </mxGeometry>
        </mxCell>
        <mxCell id="dJGLP6X07vzfaX5jemQ1-3" value="Review Doctor" style="shape=ellipse;html=1;strokeWidth=3;fontStyle=1;whiteSpace=wrap;align=center;perimeter=ellipsePerimeter;fillColor=#CDA2BE;" parent="1" vertex="1">
          <mxGeometry x="571.9999999999998" y="362" width="120" height="60" as="geometry" />
        </mxCell>
        <mxCell id="dJGLP6X07vzfaX5jemQ1-5" value="&lt;font style=&quot;font-size: 12px;&quot;&gt;&lt;b&gt;&amp;lt;&amp;lt; Refine &amp;gt;&amp;gt;&lt;/b&gt;&lt;/font&gt;" style="edgeStyle=none;html=1;endArrow=open;endSize=12;dashed=1;verticalAlign=bottom;rounded=0;strokeWidth=2;" parent="1" source="dJGLP6X07vzfaX5jemQ1-7" target="DoBYynUEnmm3b60OkJsO-8" edge="1">
          <mxGeometry x="-0.127" y="-8" width="160" relative="1" as="geometry">
            <mxPoint x="915.9956532615533" y="412.93354050404923" as="sourcePoint" />
            <mxPoint x="966.2982051282052" y="335.5" as="targetPoint" />
            <mxPoint as="offset" />
          </mxGeometry>
        </mxCell>
        <mxCell id="dJGLP6X07vzfaX5jemQ1-6" value="&lt;font style=&quot;font-size: 12px;&quot;&gt;&lt;b&gt;&amp;lt;&amp;lt; Satisfy &amp;gt;&amp;gt;&lt;/b&gt;&lt;/font&gt;" style="edgeStyle=none;html=1;endArrow=open;endSize=12;dashed=1;verticalAlign=bottom;rounded=0;strokeWidth=2;" parent="1" source="DfmyGVBLDV5pji68DM7A-5" target="DoBYynUEnmm3b60OkJsO-8" edge="1">
          <mxGeometry x="-0.0395" y="-5" width="160" relative="1" as="geometry">
            <mxPoint x="1144.6385714285716" y="379" as="sourcePoint" />
            <mxPoint x="1104.9957142857143" y="305" as="targetPoint" />
            <mxPoint as="offset" />
          </mxGeometry>
        </mxCell>
        <mxCell id="dJGLP6X07vzfaX5jemQ1-7" value="Compute analytics" style="shape=ellipse;html=1;strokeWidth=3;fontStyle=1;whiteSpace=wrap;align=center;perimeter=ellipsePerimeter;fillColor=#CDA2BE;" parent="1" vertex="1">
          <mxGeometry x="906.9999999999998" y="369" width="120" height="60" as="geometry" />
        </mxCell>
        <mxCell id="dJGLP6X07vzfaX5jemQ1-8" value="&lt;font style=&quot;font-size: 12px;&quot;&gt;&lt;b&gt;&amp;lt;&amp;lt; Refine &amp;gt;&amp;gt;&lt;/b&gt;&lt;/font&gt;" style="edgeStyle=none;html=1;endArrow=open;endSize=12;dashed=1;verticalAlign=bottom;rounded=0;strokeWidth=2;" parent="1" source="dJGLP6X07vzfaX5jemQ1-3" target="DoBYynUEnmm3b60OkJsO-7" edge="1">
          <mxGeometry x="-0.127" y="-8" width="160" relative="1" as="geometry">
            <mxPoint x="736.83" y="419.98" as="sourcePoint" />
            <mxPoint x="723.83" y="296.98" as="targetPoint" />
            <mxPoint as="offset" />
          </mxGeometry>
        </mxCell>
        <mxCell id="dJGLP6X07vzfaX5jemQ1-9" value="&amp;lt;&amp;lt; &lt;b&gt;Block &lt;/b&gt;&amp;gt;&amp;gt;&lt;div&gt;&lt;br&gt;&lt;b&gt;Review interface&lt;/b&gt;&lt;/div&gt;" style="shape=rect;html=1;whiteSpace=wrap;align=center;verticalAlign=top;fillColor=#FFF2CC;" parent="1" vertex="1">
          <mxGeometry x="399" y="344" width="120" height="60" as="geometry" />
        </mxCell>
        <mxCell id="dJGLP6X07vzfaX5jemQ1-10" value="&lt;font style=&quot;font-size: 12px;&quot;&gt;&lt;b&gt;&amp;lt;&amp;lt; Satisfy &amp;gt;&amp;gt;&lt;/b&gt;&lt;/font&gt;" style="edgeStyle=none;html=1;endArrow=open;endSize=12;dashed=1;verticalAlign=bottom;rounded=0;strokeWidth=2;" parent="1" source="dJGLP6X07vzfaX5jemQ1-9" target="DoBYynUEnmm3b60OkJsO-3" edge="1">
          <mxGeometry x="-0.5161" width="160" relative="1" as="geometry">
            <mxPoint x="438" y="354.9999999999999" as="sourcePoint" />
            <mxPoint x="551" y="360" as="targetPoint" />
            <mxPoint as="offset" />
          </mxGeometry>
        </mxCell>
        <mxCell id="dJGLP6X07vzfaX5jemQ1-11" value="&lt;font style=&quot;font-size: 12px;&quot;&gt;&lt;b&gt;&amp;lt;&amp;lt; Satisfy &amp;gt;&amp;gt;&lt;/b&gt;&lt;/font&gt;" style="edgeStyle=none;html=1;endArrow=open;endSize=12;dashed=1;verticalAlign=bottom;rounded=0;strokeWidth=2;" parent="1" source="VdbZ1WAWMFB-WAOaWvKl-6" target="DoBYynUEnmm3b60OkJsO-36" edge="1">
          <mxGeometry width="160" relative="1" as="geometry">
            <mxPoint x="-321" y="86" as="sourcePoint" />
            <mxPoint x="-146" y="86" as="targetPoint" />
          </mxGeometry>
        </mxCell>
        <mxCell id="dJGLP6X07vzfaX5jemQ1-12" value="&lt;font style=&quot;font-size: 12px;&quot;&gt;&lt;b&gt;&amp;lt;&amp;lt; Satisfy &amp;gt;&amp;gt;&lt;/b&gt;&lt;/font&gt;" style="edgeStyle=none;html=1;endArrow=open;endSize=12;dashed=1;verticalAlign=bottom;rounded=0;strokeWidth=2;" parent="1" source="VdbZ1WAWMFB-WAOaWvKl-6" target="DoBYynUEnmm3b60OkJsO-37" edge="1">
          <mxGeometry width="160" relative="1" as="geometry">
            <mxPoint x="-76.53999999999999" y="52" as="sourcePoint" />
            <mxPoint x="-134.54" y="119" as="targetPoint" />
          </mxGeometry>
        </mxCell>
        <mxCell id="dJGLP6X07vzfaX5jemQ1-13" value="&lt;font style=&quot;font-size: 12px;&quot;&gt;&lt;b&gt;&amp;lt;&amp;lt; Satisfy &amp;gt;&amp;gt;&lt;/b&gt;&lt;/font&gt;" style="edgeStyle=none;html=1;endArrow=open;endSize=12;dashed=1;verticalAlign=bottom;rounded=0;strokeWidth=2;" parent="1" source="DfmyGVBLDV5pji68DM7A-2" target="DoBYynUEnmm3b60OkJsO-7" edge="1">
          <mxGeometry x="-0.4522" y="-16" width="160" relative="1" as="geometry">
            <mxPoint x="760.28" y="362" as="sourcePoint" />
            <mxPoint x="674.28" y="283" as="targetPoint" />
            <mxPoint as="offset" />
          </mxGeometry>
        </mxCell>
        <mxCell id="cclT_DB0Qggv_PWN2DZa-2" style="rounded=0;orthogonalLoop=1;jettySize=auto;html=1;endArrow=none;endFill=0;strokeWidth=2;dashed=1;" edge="1" parent="1" source="cclT_DB0Qggv_PWN2DZa-3" target="DoBYynUEnmm3b60OkJsO-2">
          <mxGeometry relative="1" as="geometry">
            <mxPoint x="-146" y="352" as="sourcePoint" />
            <mxPoint x="-226" y="290" as="targetPoint" />
            <Array as="points" />
          </mxGeometry>
        </mxCell>
        <mxCell id="cclT_DB0Qggv_PWN2DZa-3" value="&lt;span style=&quot;background-color: initial;&quot;&gt;&lt;b&gt;&amp;lt;&amp;lt; Problem &amp;gt;&amp;gt;&lt;/b&gt;&lt;/span&gt;&lt;div&gt;&lt;div style=&quot;font-weight: bold; text-align: left;&quot;&gt;&lt;br&gt;&lt;/div&gt;&lt;div style=&quot;&quot;&gt;Font size too small&lt;/div&gt;&lt;/div&gt;" style="shape=note;size=15;align=center;spacingLeft=0;html=1;whiteSpace=wrap;verticalAlign=top;strokeWidth=1;" vertex="1" parent="1">
          <mxGeometry x="-198" y="336" width="121" height="54" as="geometry" />
        </mxCell>
        <mxCell id="cclT_DB0Qggv_PWN2DZa-4" value="&lt;span style=&quot;background-color: initial;&quot;&gt;&lt;b&gt;&amp;lt;&amp;lt; Problem &amp;gt;&amp;gt;&lt;/b&gt;&lt;/span&gt;&lt;div&gt;&lt;div style=&quot;font-weight: bold; text-align: left;&quot;&gt;&lt;br&gt;&lt;/div&gt;&lt;div style=&quot;&quot;&gt;Font size unreadable&lt;/div&gt;&lt;/div&gt;" style="shape=note;size=15;align=center;spacingLeft=0;html=1;whiteSpace=wrap;verticalAlign=top;strokeWidth=1;" vertex="1" parent="1">
          <mxGeometry x="-347" y="336" width="121" height="54" as="geometry" />
        </mxCell>
      </root>
    </mxGraphModel>
  </diagram>
</mxfile>
